<svg xmlns="http://www.w3.org/2000/svg" width="287" height="287">
<style></style>
<path d="M96 58 L57 105.66666666666666 L231 105.66666666666666 L196 59 Z" fill="green"></path>
<rect x="63" y="105.66666666666666" width="161" height="16" fill="yellow"/>
<rect x="63" y="121.66666666666666" width="161" height="43.6666666666666" fill="teal"/>
<rect x="63" y="164.33333333333333" width="161" height="16" fill="yellow"/>
<path d="M57 180.33333333333333 L97 224 L185 227 L231 180.33333333333333 Z" fill="#ce1126"></path>
<path d="M 143 1.9938997201410855 C 142.725 1.9938997201410855 133.275 11.221644846077599 122 22.500000000000004 L 101.5 43.00610027985892 L 72.25 43.00305013992946 L 43 43 L 42.99709261220476 72.25 L 42.99418522440952 101.5 L 22.24709261220476 122.25 L 1.5 143 L 22.247092612204753 163.75 L 42.994185224409506 184.5 L 42.99709261220475 213.75 L 43 243 L 72.25 243.00290738779523 L 101.5 243.00581477559047 L 122.24999999999999 263.75290738779523 L 142.99999999999997 284.5 L 163.75 263.75290738779523 L 184.5 243.00581477559047 L 213.75 243.00290738779523 L 243 243 L 243.00290738779523 213.75 L 243.0058147755905 184.5 L 263.75290738779523 163.75 L 284.5 143 L 263.75290738779523 122.25 L 243.0058147755905 101.5 L 243.00290738779523 72.25 L 243 43 L 213.75 43.00305013992946 L 184.5 43.00610027985892 L 164 22.500000000000004 C 152.725 11.221644846077599 143.275 1.9938997201410855 143 1.9938997201410855 Z M 143 30.979058937365185 C 143.275 30.979058937365185 146.2 33.68848241555085 149.5 37 L 155.5 43.02094106263482 L 143 43.02094106263482 L 130.5 43.02094106263482 L 136.5 37 C 139.8 33.68848241555085 142.725 30.979058937365185 143 30.979058937365185 Z M 72 63 C 76.95 63 81.00313221115391 63.1125 81.00696046923093 63.25 C 81.01078872730794 63.3875 76.95765651615402 67.55 72 72.5 L 62.98607906153815 81.5 L 62.993039530769074 72.25 L 63 63 L 72 63 Z M 143 62.999946282722036 L 175.5 63.00510259346109 L 199.2526050140085 86.75255129673054 L 223.00521002801702 110.5 L 223.00005371727795 143 L 222.99489740653888 175.5 L 199.24744870326944 199.2526050140085 L 175.5 223.00521002801702 L 143 223.00521002801702 L 110.5 223.00521002801702 L 86.75255129673054 199.2526050140085 L 63.00510259346109 175.5 L 63.00510259346109 143 L 63.00510259346109 110.5 L 86.75255129673054 86.74739498599149 L 110.5 62.994789971982975 L 143 62.999946282722036 Z M 213.75 62.993039530769074 L 223 63 L 223 72 C 223 76.95 222.8875 81.00313221115391 222.75 81.00696046923093 C 222.6125 81.01078872730794 218.45 76.95765651615402 213.5 72 L 204.5 62.98607906153815 L 213.75 62.993039530769074 Z M 42.75 130.98952946868258 C 42.8875 130.99528826090716 43.0015 136.5125 43.00333333333333 143.25 L 43.00666666666667 155.5 L 36.75333333333333 149.26070703732398 L 30.5 143.021414074648 L 36.5 137.0002365060066 C 39.8 133.68858884325383 42.6125 130.98377067645802 42.75 130.98952946868258 Z M 249.24666666666667 136.75 L 255.5 143 L 249.24666666666667 149.25 L 242.99333333333334 155.5 L 242.99333333333334 143 L 242.99333333333334 130.5 L 249.24666666666667 136.75 Z M 63.25 204.99303953076907 C 63.3875 204.98921127269205 67.55 209.04234348384597 72.5 214 L 81.5 223.01392093846187 L 72.25 223.00696046923093 L 63 223 L 63 214 C 63 209.05 63.1125 204.9968677888461 63.25 204.99303953076907 Z M 222.75 204.99303953076907 C 222.8875 204.9968677888461 223 209.05 223 214 L 223 223 L 213.75 223.00696046923093 L 204.5 223.01392093846187 L 213.5 214 C 218.45 209.04234348384597 222.6125 204.98921127269205 222.75 204.99303953076907 Z M 143 242.99333333333334 L 155.5 242.99333333333334 L 149.25 249.24666666666667 L 143 255.5 L 136.75 249.24666666666667 L 130.5 242.99333333333334 L 143 242.99333333333334 Z " fill="#000000" stroke-width="2" stroke="#00e500"></path>
</svg>