<svg xmlns="http://www.w3.org/2000/svg" width="3600" height="2400" viewBox="0 0 900 600">
<style></style>
<rect width="900" height="600" fill="white"/>
<path d="M0 0 L0 600 L900 600" fill="#400000"/>
<g transform="translate(0,-5.02)">
<g transform="translate(0,6)">
<rect x="369" y="160" width="161" height="42.66666666666666" fill="green"/>
<rect x="369" y="202.66666666666666" width="161" height="16" fill="yellow"/>
<rect x="369" y="218.66666666666666" width="161" height="43.6666666666666" fill="teal"/>
<rect x="369" y="261.33333333333333" width="161" height="16" fill="yellow"/>
<rect x="369" y="277.33333333333333" width="161" height="45.66666666666666" fill="#ce1126"/>
</g>
<path d="M406 158 L360 197 L360 158" fill="white"></path>
<path d="M500 158 L539 157 L534 187" fill="white"></path>
<path d="M358 289 L406 332 L363 338" fill="#400000"></path>
<path d="M537 285 L490 332 L542 333" fill="white"></path>
<path d="M 387.5 422 L 385 422 L 384.9834406911979 439.75 C 384.97338257187477 450.53134480853805 385.42036707713333 458.8741010236686 386.12196379936665 461 C 386.7572591287006 462.925 388.2272108176615 465.57049537953367 389.3885231081687 466.8788786211859 C 390.54983539867595 468.18726186283817 392.9625 469.87476186283817 394.75 470.6288786211859 C 396.5375 471.38299537953367 399.6875 471.9935920923786 401.75 471.98576020528577 C 403.8125 471.97792831819294 407.4125 471.07792831819296 409.75 469.98576020528577 C 412.9139871007058 468.50742616419893 414.50742616419893 466.9139871007058 415.98576020528577 463.75 C 417.7431044234654 459.9888646386492 417.97315837106504 457.34324424125344 417.98576020528577 440.75 L 418 422 L 415.5 422 L 413 422 L 413.0165593088021 439.75 C 413.0256669286432 449.5125 412.5954349514023 458.85 412.0604882482668 460.5 C 411.5255415451312 462.15 409.83058985617026 464.3582172972684 408.29392893946465 465.40714954948544 C 406.6282312666686 466.5441629220806 403.8847387802429 467.2880355917124 401.5 467.2492606842867 C 399.3 467.21348955621033 396.4712407712631 466.58027225894193 395.2138683805847 465.84211113480126 C 393.9564959899062 465.1039500106605 392.2689959899062 463.0375 391.4638683805847 461.25 C 390.35329825760454 458.7843733442457 390 453.65577840110063 390 440 L 390 422 L 387.5 422 Z M 440.5 422 L 428 422 L 428 446.5 L 428 471 L 430.5 471 L 433 471 L 433.25 459.75 L 433.5 448.5 L 442.75 448.25 L 452 448 L 452 446 L 452 444 L 442.5 444 L 433 444 L 433.25 435.25 L 433.5 426.5 L 443.25 426.25 L 453 426 L 453 424 L 453 422 L 440.5 422 Z M 472.5 422 L 460 422 L 460 446.5 L 460 471 L 462.5 471 L 465 471 L 465.25 459.75 L 465.5 448.5 L 474.75 448.25 L 484 448 L 484 446 L 484 444 L 474.5 444 L 465 444 L 465.25 435.25 L 465.5 426.5 L 475.25 426.25 L 485 426 L 485 424 L 485 422 L 472.5 422 Z M 504.5 422 L 492 422 L 492 446.5 L 492 471 L 494.5 471 L 497 471 L 497.25 459.75 L 497.5 448.5 L 506.75 448.25 L 516 448 L 516 446 L 516 444 L 506.5 444 L 497 444 L 497.25 435.25 L 497.5 426.5 L 507.25 426.25 L 517 426 L 517 424 L 517 422 L 504.5 422 Z " fill="#e5ff00" transform="translate(0,-3)"></path>
<path d="M 450 101.99389972014109 C 449.725 101.99389972014109 440.275 111.2216448460776 429 122.5 L 408.5 143.0061002798589 L 379.25 143.00305013992946 L 350 143 L 349.99709261220477 172.25 L 349.99418522440953 201.5 L 329.24709261220477 222.25 L 308.5 243 L 329.24709261220477 263.75 L 349.99418522440953 284.5 L 349.99709261220477 313.75 L 350 343 L 379.25 343.00290738779523 L 408.5 343.00581477559047 L 429.25 363.75290738779523 L 450 384.5 L 470.75 363.75290738779523 L 491.5 343.00581477559047 L 520.75 343.00290738779523 L 550 343 L 550.0029073877952 313.75 L 550.0058147755905 284.5 L 570.7529073877952 263.75 L 591.5 243 L 570.7529073877952 222.25 L 550.0058147755905 201.5 L 550.0029073877952 172.25 L 550 143 L 520.75 143.00305013992946 L 491.5 143.0061002798589 L 471 122.5 C 459.725 111.2216448460776 450.275 101.99389972014109 450 101.99389972014109 Z M 450 130.97905893736518 C 450.275 130.97905893736518 453.2 133.68848241555085 456.5 137 L 462.5 143.02094106263482 L 450 143.02094106263482 L 437.5 143.02094106263482 L 443.5 137 C 446.8 133.68848241555085 449.725 130.97905893736518 450 130.97905893736518 Z M 379 163 C 383.95 163 388.0031322111539 163.1125 388.00696046923093 163.25 C 388.01078872730795 163.3875 383.95765651615403 167.55 379 172.5 L 369.98607906153813 181.5 L 369.99303953076907 172.25 L 370 163 L 379 163 Z M 450 162.99994628272202 L 482.5 163.0051025934611 L 506.2526050140085 186.75255129673053 L 530.005210028017 210.5 L 530.000053717278 243 L 529.9948974065389 275.5 L 506.24744870326947 299.2526050140085 L 482.5 323.005210028017 L 450 323.005210028017 L 417.5 323.005210028017 L 393.75255129673053 299.2526050140085 L 370.00510259346106 275.5 L 370.00510259346106 243 L 370.00510259346106 210.5 L 393.75255129673053 186.7473949859915 L 417.5 162.99478997198298 L 450 162.99994628272202 Z M 520.75 162.99303953076907 L 530 163 L 530 172 C 530 176.95 529.8875 181.0031322111539 529.75 181.00696046923093 C 529.6125 181.01078872730795 525.45 176.95765651615403 520.5 172 L 511.5 162.98607906153813 L 520.75 162.99303953076907 Z M 349.75 230.98952946868258 C 349.8875 230.99528826090716 350.0015 236.5125 350.00333333333333 243.25 L 350.00666666666666 255.5 L 343.75333333333333 249.26070703732398 L 337.5 243.021414074648 L 343.5 237.0002365060066 C 346.8 233.68858884325383 349.6125 230.98377067645802 349.75 230.98952946868258 Z M 556.2466666666667 236.75 L 562.5 243 L 556.2466666666667 249.25 L 549.9933333333333 255.5 L 549.9933333333333 243 L 549.9933333333333 230.5 L 556.2466666666667 236.75 Z M 370.25 304.99303953076907 C 370.3875 304.98921127269205 374.55 309.04234348384597 379.5 314 L 388.5 323.01392093846187 L 379.25 323.00696046923093 L 370 323 L 370 314 C 370 309.05 370.1125 304.9968677888461 370.25 304.99303953076907 Z M 529.75 304.99303953076907 C 529.8875 304.9968677888461 530 309.05 530 314 L 530 323 L 520.75 323.00696046923093 L 511.5 323.01392093846187 L 520.5 314 C 525.45 309.04234348384597 529.6125 304.98921127269205 529.75 304.99303953076907 Z M 450 342.99333333333334 L 462.5 342.99333333333334 L 456.25 349.24666666666667 L 450 355.5 L 443.75 349.24666666666667 L 437.5 342.99333333333334 L 450 342.99333333333334 Z " fill="#000000" transform="translate(0,3)" stroke-width="2" stroke="#00e500"></path>
<path d="M 4528.5 4946.4173696425905 C 4523.860267698672 4945.9978286859405 4521.722626247737 4946.285762126643 4519.071084854745 4947.687414241829 C 4517.185181524855 4948.684336408823 4514.710181524855 4950.769737627036 4513.571084854745 4952.321639171192 C 4511.901974617271 4954.595629450395 4511.451477770654 4956.876174229671 4511.25 4964.071639171192 L 4511 4973 L 4507 4973 L 4503 4973 L 4503 4976.5 L 4503 4980 L 4507 4980 L 4511 4980 L 4511 5003.5 L 4511 5027 L 4515.5 5027 L 4520 5027 L 4520 5003.5 L 4520 4980 L 4525.5 4980 L 4531 4980 L 4531 4976.5 L 4531 4973 L 4525.5 4973 L 4520 4973 L 4520 4966.5 C 4520 4962.722222222223 4520.628205128205 4958.74358974359 4521.5 4957 C 4522.325 4955.35 4524.0125 4953.784497215211 4525.25 4953.521104922691 C 4526.4875 4953.257712630171 4528.9625 4953.482712630171 4530.75 4954.021104922691 L 4534 4955 L 4534.575815966931 4951.25 C 4534.892514748744 4949.1875 4535.0050147487445 4947.378479930343 4534.825815966931 4947.229955400762 C 4534.646617185119 4947.081430871181 4531.8 4946.715767280004 4528.5 4946.4173696425905 Z M 4192.5 4947 C 4189.134362609655 4947 4187.8323155317985 4947.441141014866 4187.334798149655 4948.75 C 4186.9689371319655 4949.7125 4186.856437131965 4956.412796118798 4187.084798149655 4963.639546930663 L 4187.5 4976.779093861325 L 4183.5 4974.441208546086 C 4181.3 4973.155371622705 4177.7 4971.81158518169 4175.5 4971.455016454941 C 4173.3 4971.098447728192 4169.5875 4971.300200001251 4167.25 4971.903354839516 C 4164.6506191214985 4972.574083889084 4161.231879911288 4974.6506191214985 4158.44745951434 4977.25 C 4155.943562247227 4979.5875 4152.927305172001 4983.525 4151.744666013837 4986 C 4150.026270462069 4989.59621864477 4149.584932031417 4992.407982861041 4149.5472064994965 5000 C 4149.514436826862 5006.59468279461 4150.018600264748 5010.876202886763 4151.195753739374 5014 C 4152.180523317859 5016.613270429714 4154.800981054367 5020.281911260825 4157.445753739374 5022.75 C 4160.454530648608 5025.557775674055 4163.272550875834 5027.213907385217 4165.75 5027.630350196439 C 4167.8125 5027.977042804482 4171.75 5028.012991929027 4174.5 5027.710237139874 C 4177.879177173188 5027.338214568026 4180.877699402791 5026.161383674484 4183.75 5024.079886943434 L 4188 5021 L 4188.75 5024.023148148148 C 4189.4197247706425 5026.72271774833 4189.901376146789 5027.043818665761 4193.25 5027.023148148148 L 4197 5027 L 4197 4987 L 4197 4947 L 4192.5 4947 Z M 4039.25 4949.983333333334 C 4037.1875 4949.974166666666 4034.93 4950.536666666666 4034.2333333333336 4951.233333333334 C 4033.536666666667 4951.93 4032.9666666666667 4953.85 4032.9666666666667 4955.5 C 4032.9666666666667 4957.15 4033.536666666667 4959.07 4034.2333333333336 4959.766666666666 C 4034.93 4960.463333333334 4036.9625 4961.025833333334 4038.75 4961.016666666666 C 4040.5375 4961.0075 4042.675 4960.325 4043.5 4959.5 C 4044.325 4958.675 4045 4957.1 4045 4956 C 4045 4954.9 4044.55 4953.1 4044 4952 C 4043.269487750557 4950.538975501114 4041.989420935412 4949.99550853749 4039.25 4949.983333333334 Z M 5001.25 4949.983333333334 C 4999.1875 4949.974166666666 4996.93 4950.536666666666 4996.233333333334 4951.233333333334 C 4995.536666666666 4951.93 4994.966666666666 4953.85 4994.966666666666 4955.5 C 4994.966666666666 4957.15 4995.536666666666 4959.07 4996.233333333334 4959.766666666666 C 4996.93 4960.463333333334 4998.9625 4961.025833333334 5000.75 4961.016666666666 C 5002.5375 4961.0075 5004.675 4960.325 5005.5 4959.5 C 5006.325 4958.675 5007 4957.1 5007 4956 C 5007 4954.9 5006.55 4953.1 5006 4952 C 5005.269487750556 4950.538975501114 5003.9894209354115 4949.99550853749 5001.25 4949.983333333334 Z M 3906.5 4954 L 3902 4954 L 3902 4980.5 L 3902 5007 L 3904.209230077695 5012.75 C 3905.4243066204267 5015.9125 3907.3782141855495 5019.625 3908.5512468890784 5021 C 3909.724279592607 5022.375 3913.117626057645 5024.562920001404 3916.0920168113835 5025.862044447563 C 3920.6491154389673 5027.852448103576 3922.7712927858047 5028.167125324771 3929.5799797390837 5027.862044447563 C 3936.483450143385 5027.552716552011 3938.3763535721137 5027.056282792121 3942.5799797390837 5024.452658220765 C 3946.3463096064343 5022.119884420965 3948.203466855247 5020.026997521748 3950.5 5015.527346884741 L 3953.5 5009.649377327951 L 3953.75 4981.824688663975 L 3954 4954 L 3949.5 4954 L 3945 4954 L 3944.75 4980.75 L 3944.5 5007.5 L 3942.38743271595 5011.5 C 3941.2255207097223 5013.7 3939.0498048446507 5016.4 3937.552508571346 5017.5 C 3935.7748199463026 5018.805992355963 3932.864348736945 5019.607921663784 3929.165075855396 5019.81101001469 C 3925.0247099737426 5020.0383141649845 3922.5580029209996 5019.607834569406 3920 5018.211558574643 C 3918.036732708124 5017.139916721366 3915.4023337799113 5014.36896371826 3914 5011.900548559954 L 3911.5 5007.5 L 3911.25 4980.75 L 3911 4954 L 3906.5 4954 Z M 4259.5 4954 L 4238 4954 L 4238 4990.5 L 4238 5027 L 4243 5027 L 4248 5027 L 4248 5010.5 L 4248 4994 L 4262 4994 L 4276 4994 L 4275.75 4990.25 L 4275.5 4986.5 L 4261.75 4986.25 L 4248 4986 L 4248 4973.5 L 4248 4961 L 4264.5 4961 L 4281 4961 L 4281 4957.5 L 4281 4954 L 4259.5 4954 Z M 4684 4954 L 4663 4954 L 4663 4990.5 L 4663 5027 L 4667.5 5027 L 4672 5027 L 4672 5010.5 L 4672 4994 L 4686 4994 L 4700 4994 L 4700 4990 L 4700 4986 L 4686 4986 L 4672 4986 L 4672.25 4973.75 L 4672.5 4961.5 L 4688.75 4961.25 L 4705 4961 L 4705 4957.5 L 4705 4954 L 4684 4954 Z M 4068.75 4956.976851851852 C 4065.8933752521643 4956.956505521739 4065.4077377802237 4957.349880773903 4064.7377450980393 4960.226851851852 C 4064.3185049019608 4962.027083333333 4063.9810049019607 4965.6375 4063.9877450980393 4968.25 L 4064 4973 L 4059.5 4973 L 4055 4973 L 4055 4976.5 L 4055 4980 L 4059 4980 L 4063 4980 L 4063 4996.5 C 4063 5005.575 4063.4566641537367 5014.9125 4064.014809230526 5017.25 C 4064.597783236823 5019.691483041571 4066.3302747163084 5022.776600205951 4068.086149979362 5024.5 C 4070.698336657766 5027.0638734586155 4072.0409072608727 5027.5489083742505 4077.3213407488356 5027.836427868587 C 4080.719603336976 5028.021463196309 4084.7375 5027.683963196309 4086.25 5027.086427868587 C 4088.6720749221836 5026.129551615763 4088.9003174781333 5025.672074922183 4088.164056201622 5023.25 L 4087.328112403244 5020.5 L 4082.914056201622 5020.8478029509115 C 4079.3521786100478 5021.128458991649 4077.9208193748864 5020.710691160116 4075.5 5018.68387784663 L 4072.5 5016.172149791436 L 4072.25 4998.086074895718 L 4072 4980 L 4079.5 4980 L 4087 4980 L 4087 4976.5 L 4087 4973 L 4079.5 4973 L 4072 4973 L 4072 4965 L 4072 4957 L 4068.75 4956.976851851852 Z M 4456.25 4956.98961403656 L 4452.5 4956.979228073121 L 4451.75 4964.98961403656 L 4451 4973 L 4446.5 4973 L 4442 4973 L 4442 4976.5 L 4442 4980 L 4446.5 4980 L 4451 4980 L 4451 4998.5 C 4451 5012.722222222223 4451.346846846847 5017.809309309309 4452.5 5020.5 C 4453.325 5022.425 4455.4625 5024.928295239312 4457.25 5026.0628783095835 C 4459.914026826819 5027.753820819489 4461.789986547673 5028.069344835818 4467.654689790968 5027.8128783095835 C 4471.589769176002 5027.640795239313 4475.071841544423 5027.275 4475.392628387461 5027 C 4475.713415230498 5026.725 4475.643804824562 5025.026353013737 4475.237938596491 5023.225228919417 L 4474.5 5019.950457838833 L 4470 5020.638268480532 C 4465.994621479269 5021.25047780733 4465.197731318225 5021.033368773993 4462.75 5018.6630395611155 L 4460 5016 L 4460 4998 L 4460 4980 L 4467.5 4980 L 4475 4980 L 4475 4976.5 L 4475 4973 L 4467.5 4973 L 4460 4973 L 4460 4965 L 4460 4957 L 4456.25 4956.98961403656 Z M 4812 4957 L 4808 4957 L 4807.9889943361195 4961.25 C 4807.982941220985 4963.5875 4807.645441220984 4967.195766118539 4807.2389943361195 4969.268369152309 L 4806.5 4973.036738304619 L 4802.75 4973.018369152309 L 4799 4973 L 4799 4976.5 L 4799 4980 L 4803 4980 L 4807 4980 L 4807.25 4999.75 L 4807.5 5019.5 L 4809.603785384774 5022.5 C 4810.760867346398 5024.15 4813.235867346399 5026.137543336744 4815.103785384774 5026.916762970542 C 4817.501897506231 5027.91715806856 4820.410263909827 5028.147964208138 4825 5027.702120375631 C 4828.575 5027.354847314633 4831.639275781124 5026.9423039778885 4831.80950173583 5026.78535740509 C 4831.979727690536 5026.628410832291 4831.867227690536 5025.0375 4831.55950173583 5023.25 L 4831 5020 L 4826.25 5020.602162198153 C 4822.395746366962 5021.090769743398 4821.028554543705 5020.824943759427 4819 5019.192529437774 L 4816.5 5017.180734479242 L 4816.25 4998.590367239622 L 4816 4980 L 4823.5 4980 L 4831 4980 L 4831 4976.5 L 4831 4973 L 4823.5 4973 L 4816 4973 L 4816 4965 L 4816 4957 L 4812 4957 Z M 5030.75 4956.976851851852 C 5027.893375252164 4956.956505521739 5027.407737780224 4957.349880773903 5026.737745098039 4960.226851851852 C 5026.318504901961 4962.027083333333 5025.981004901961 4965.6375 5025.987745098039 4968.25 L 5026 4973 L 5021.5 4973 L 5017 4973 L 5017 4976.5 L 5017 4980 L 5021 4980 L 5025 4980 L 5025 4996.5 C 5025 5005.575 5025.456664153737 5014.9125 5026.014809230526 5017.25 C 5026.597783236823 5019.691483041571 5028.330274716308 5022.77660020595 5030.086149979361 5024.5 C 5032.698336657766 5027.0638734586155 5034.040907260873 5027.5489083742505 5039.321340748835 5027.836427868587 C 5042.7196033369755 5028.021463196309 5046.7375 5027.683963196309 5048.25 5027.086427868587 C 5050.672074922183 5026.129551615763 5050.900317478134 5025.672074922183 5050.164056201622 5023.25 L 5049.328112403244 5020.5 L 5044.914056201622 5020.8478029509115 C 5041.352178610047 5021.128458991649 5039.920819374886 5020.710691160116 5037.5 5018.68387784663 L 5034.5 5016.172149791436 L 5034.25 4998.086074895718 L 5034 4980 L 5041.5 4980 L 5049 4980 L 5049 4976.5 L 5049 4973 L 5041.5 4973 L 5034 4973 L 5034 4965 L 5034 4957 L 5030.75 4956.976851851852 Z M 4000.5 4971.065854824548 C 3998.85 4971.077916777511 3995.7 4971.740594477823 3993.5 4972.538471936354 C 3991.3 4973.336349394885 3987.8125 4975.3415976240585 3985.75 4976.9945791122955 C 3983.6875 4978.647560600533 3981.7625 4979.6625 3981.472222222222 4979.25 C 3981.1819444444445 4978.8375 3980.956944444444 4977.2625 3980.972222222222 4975.75 L 3981 4973 L 3977 4973 L 3973 4973 L 3973 5000 L 3973 5027 L 3977.5 5027 L 3982 5027 L 3981.954135673102 5007.75 L 3981.908271346204 4988.5 L 3985.704135673102 4984.935991267523 C 3987.791861052896 4982.975786464661 3991.1875 4980.838286464661 3993.25 4980.185991267523 C 3995.897126935674 4979.348799419594 3998.0293481933713 4979.29409948382 4000.5 4980 C 4002.8333333333335 4980.666666666667 4004.5 4982 4005.5 4984 C 4006.6833333333334 4986.366666666667 4007 4991.222222222223 4007 5007 L 4007 5027 L 4012 5027 L 4017 5027 L 4016.741144665695 5005.75 L 4016.482289331391 4984.5 L 4014.241144665695 4979.75 C 4012.506613950988 4976.073744280781 4011.0392814329853 4974.552861686497 4007.75 4973.021962000491 C 4005.4125 4971.934041100761 4002.15 4971.053792871587 4000.5 4971.065854824548 Z M 4117.5 4971.084524302823 C 4115.85 4971.124878041534 4112.475 4971.885761278196 4110 4972.775375939849 C 4107.525 4973.664990601504 4103.9201372599755 4975.991964285714 4101.989193911058 4977.946428571428 C 4100.05825056214 4979.900892857143 4097.63898917956 4983.3 4096.613057505327 4985.5 C 4095.5871258310926 4987.7 4094.3780802805895 4991.75 4093.9262896153195 4994.5 C 4093.474498950049 4997.25 4093.4782994255647 5001.975 4093.934735116465 5005 C 4094.3911708073656 5008.025 4095.6546548898923 5012.3 4096.74247752208 5014.5 C 4097.830300154267 5016.7 4100.695761061331 5020.203944619003 4103.110168426665 5022.286543597784 C 4105.524575791999 5024.369142576565 4109.075 5026.504132956084 4111 5027.030966663381 C 4112.925 5027.557800370679 4116.975 5027.996562737784 4120 5028.0059941458385 C 4123.025 5028.015425553892 4127.525 5027.361843137909 4130 5026.553588776987 C 4132.475 5025.745334416066 4135.0625 5024.390127429958 4135.75 5023.542017696747 C 4136.703278524756 5022.366039812665 4136.730468969305 5021.465901344561 4135.864545317821 5019.75 C 4135.240045242622 5018.5125 4134.677545242622 5017.401457380373 4134.614545317821 5017.28101640083 C 4134.551545393019 5017.160575421286 4132.1375 5017.948075421286 4129.25 5019.03101640083 C 4126.3625 5020.113957380373 4122.3125 5020.999300700414 4120.25 5020.998446000921 C 4118.1875 5020.997591301428 4114.956996114119 5020.210091301427 4113.07110247582 5019.248446000921 C 4111.185208837522 5018.2868007004145 4108.360246024951 5015.925 4106.793407336776 5014 C 4105.226568648602 5012.075 4103.619572534482 5008.5806058789285 4103.222304860956 5006.234679730953 L 4102.5 5001.969359461906 L 4120.75 5001.984679730953 L 4139 5002 L 4139.554026197742 4999.75 C 4139.858740606501 4998.5125 4139.688766750576 4994.8 4139.176306517909 4991.5 C 4138.6638462852425 4988.2 4137.571258370209 4984.15 4136.748333373391 4982.5 C 4135.925408376573 4980.85 4133.620382232497 4978.0375 4131.626053053224 4976.25 C 4129.631723873951 4974.4625 4126.3125 4972.552509620481 4124.25 4972.005576934403 C 4122.1875 4971.458644248324 4119.15 4971.044170564113 4117.5 4971.084524302823 Z M 4316 4971.606556143066 C 4314.075 4971.37528656957 4311.375 4971.430422726665 4310 4971.729080936611 C 4308.625 4972.027739146557 4305.3625 4974.460874294434 4302.75 4977.136047931893 L 4298 4982 L 4298 4977.5 L 4298 4973 L 4294 4973 L 4290 4973 L 4290 5000 L 4290 5027 L 4294.5 5027 L 4299 5027 L 4299 5010 C 4299 4997.805068013005 4299.389165001138 4992.081384056337 4300.376838996129 4989.75 C 4301.134100443999 4987.9625 4303.19050945471 4985.15 4304.9466367977075 4983.5 C 4307.3824593224435 4981.211380565971 4309.359079300893 4980.381436572338 4313.2823437582365 4980 L 4318.425091913315 4979.5 L 4319.1345807321695 4976 C 4319.524799582539 4974.075 4319.766653902044 4972.3935854122565 4319.672034775513 4972.263523138347 C 4319.577415648981 4972.133460864438 4317.925 4971.837825716561 4316 4971.606556143066 Z M 4348 4971.059910298356 C 4346.625 4971.103576531387 4343.3625 4971.782960173224 4340.75 4972.569651724661 C 4337.748268197281 4973.473551073514 4334.411807799026 4975.564239965988 4331.684922389848 4978.25 C 4328.813629098435 4981.077990036562 4326.75178898205 4984.3402481879775 4325.522644543738 4988 C 4324.407825684479 4991.319349795743 4323.686286464682 4996.275372987237 4323.702790217199 5000.5 C 4323.72216620082 5005.459860111718 4324.36728808453 5008.957242777345 4325.91629195397 5012.5 C 4327.118677659014 5015.25 4329.541897030525 5019.017450220241 4331.301223890661 5020.8721116005345 C 4333.060550750797 5022.726772980828 4336.3 5025.0793900806075 4338.5 5026.100149600044 C 4340.925887279123 5027.225716660609 4344.861169081315 5027.97700235017 4348.5 5028.009252244592 C 4353.170520691043 5028.050645703796 4355.696756579224 5027.446167358064 4359.901016342988 5025.281214245083 C 4363.716325311049 5023.316548527095 4366.293809782697 5021.032028719941 4368.680086160841 5017.5 C 4370.620884097137 5014.627342786699 4372.520358118809 5010.159922934631 4373.144514821675 5007 C 4373.74202117396 5003.975 4373.9539397559265 4999.1375 4373.615445003823 4996.25 C 4373.27695025172 4993.3625 4371.9875 4988.682293092637 4370.75 4985.84954020586 C 4369.5125 4983.016787319082 4366.8125 4979.191787319082 4364.75 4977.34954020586 C 4362.655861712632 4975.479033435148 4358.681793602315 4973.333353860322 4355.75 4972.490258573696 C 4352.8625 4971.659900789228 4349.375 4971.016244065326 4348 4971.059910298356 Z M 4416.5 4971.448677585684 C 4412.834255232107 4971.064995019399 4410.432595814314 4971.427744966734 4407.5 4972.808049985379 C 4405.3 4973.84353909922 4402.0375 4975.8853370354445 4400.25 4977.345378732545 C 4398.4625 4978.805420429645 4396.775 4980 4396.5 4980 C 4396.225 4980 4396 4978.425 4396 4976.5 L 4396 4973 L 4392 4973 L 4388 4973 L 4388 5000 L 4388 5027 L 4392.5 5027 L 4397 5027 L 4397.018025896667 5007.25 L 4397.036051793332 4987.5 L 4401.268025896667 4984.055196636917 C 4403.5956116535 4982.1605547872205 4407.075 4980.2226553448645 4409 4979.748753431681 C 4411.172847233007 4979.213835789718 4413.732356140779 4979.2877025961 4415.75 4979.943556794764 C 4418.023755200177 4980.682662404486 4419.450574522995 4982.051340553655 4420.5 4984.5 C 4421.6623931623935 4987.21225071225 4422 4992.388888888889 4422 5007.5 L 4422 5027 L 4427 5027 L 4432 5027 L 4431.979893151759 5010.25 C 4431.968834385227 5001.0375 4431.531409750002 4990.575 4431.0078384068165 4987 C 4430.484267063632 4983.425 4429.201351670344 4979.375 4428.156915310621 4978 C 4427.1124789508995 4976.625 4425.187403586124 4974.706202849782 4423.8789700555635 4973.73600633285 C 4422.570536525003 4972.765809815917 4419.25 4971.736511879692 4416.5 4971.448677585684 Z M 4563.5 4971.518199476932 C 4560.512761352867 4971.22468661819 4556.68851478242 4971.612018841232 4554 4972.480390604286 C 4551.525 4973.279798562767 4547.747126250305 4975.411241205271 4545.604725000678 4977.216929809852 C 4543.46232375105 4979.022618414434 4540.601320934982 4982.75 4539.246940964971 4985.5 C 4537.741540489213 4988.556639495562 4536.580102953523 4993.026368655768 4536.258721504306 4997 C 4535.905794632261 5001.363665931538 4536.2514013452255 5005.307667288698 4537.31026286548 5009 C 4538.17775134748 5012.025 4540.168719464077 5016.3 4541.734636457917 5018.5 C 4543.4839612080505 5020.957674618407 4546.686693433701 5023.564934150588 4550.04087913245 5025.261892304431 C 4554.133726232176 5027.332555911668 4556.939073132028 5028.0208082791605 4561.25 5028.011892304431 C 4564.4125 5028.005351536994 4568.6875 5027.302193406619 4570.75 5026.449318681376 C 4572.8125 5025.596443956132 4576.017606907157 5023.458943956132 4577.872459793682 5021.699318681376 C 4579.727312680206 5019.939693406619 4582.310416668139 5016.25 4583.612690877977 5013.5 C 4585.550474033887 5009.408001833641 4585.968420428095 5006.95639688281 4585.914153158792 5000 C 4585.877683203403 4995.325 4585.31957921547 4990.067174400683 4584.673922074497 4988.31594311263 C 4584.028264933523 4986.564711824577 4582.139547301579 4983.189711824577 4580.476771781287 4980.81594311263 C 4578.7069432867565 4978.2893461940685 4575.5975194354 4975.569137454244 4572.976771781287 4974.254738682497 C 4570.514547301579 4973.019844957871 4566.25 4971.7884023153665 4563.5 4971.518199476932 Z M 4624.75 4971.039141810636 C 4623.5125 4971.060669806485 4621.15 4971.667495332039 4619.5 4972.387642978533 C 4617.85 4973.1077906250275 4614.8125 4975.5651768102425 4612.75 4977.848501167899 L 4609 4982 L 4609 4979 C 4609 4977.35 4608.775 4975.325 4608.5 4974.5 C 4608.18253968254 4973.547619047619 4606.722222222223 4973 4604.5 4973 L 4601 4973 L 4601 5000 L 4601 5027 L 4605.5 5027 L 4610 5027 L 4610 5009.5 C 4610 4994 4610.228571428572 4991.542857142857 4612 4988 C 4613.1 4985.8 4615.4625 4983.101682127197 4617.25 4982.003738060437 C 4619.153751242919 4980.834388476243 4622.260479143875 4980.005927702654 4624.75 4980.003738060437 C 4627.636412410385 4980.001199334782 4629.160422069366 4979.518733791901 4629.5 4978.5 C 4629.775 4977.675 4630 4975.875 4630 4974.5 C 4630 4973.125 4629.325 4971.775 4628.5 4971.5 C 4627.675 4971.225 4625.9875 4971.017613814785 4624.75 4971.039141810636 Z M 4738.75 4971.039141810636 C 4737.5125 4971.060669806485 4735.15 4971.667495332039 4733.5 4972.387642978533 C 4731.85 4973.1077906250275 4728.8125 4975.5651768102425 4726.75 4977.848501167899 L 4723 4982 L 4723 4979 C 4723 4977.35 4722.775 4975.325 4722.5 4974.5 C 4722.18253968254 4973.547619047619 4720.722222222223 4973 4718.5 4973 L 4715 4973 L 4715 5000 L 4715 5027 L 4719.5 5027 L 4724 5027 L 4724 5009.5 C 4724 4994 4724.228571428572 4991.542857142857 4726 4988 C 4727.1 4985.8 4729.4625 4983.101682127197 4731.25 4982.003738060437 C 4733.153751242919 4980.834388476243 4736.260479143875 4980.005927702654 4738.75 4980.003738060437 C 4741.636412410385 4980.001199334782 4743.160422069366 4979.518733791901 4743.5 4978.5 C 4743.775 4977.675 4744 4975.875 4744 4974.5 C 4744 4973.125 4743.325 4971.775 4742.5 4971.5 C 4741.675 4971.225 4739.9875 4971.017613814785 4738.75 4971.039141810636 Z M 4773 4971.547025456412 C 4769.975 4971.293506645285 4765.8125 4971.516713676676 4763.75 4972.043041081726 C 4761.6875 4972.569368486777 4757.75 4974.125 4755 4975.5 C 4752.25 4976.875 4750 4978.225 4750 4978.5 C 4750 4978.775 4750.5625 4980.137964570769 4751.25 4981.528810157266 C 4751.9375 4982.919655743763 4752.8375 4984.044655743763 4753.25 4984.028810157266 C 4753.6625 4984.012964570769 4755.9125 4983.041052852198 4758.25 4981.869006338217 C 4760.5875 4980.696959824237 4764.975 4979.511265026649 4768 4979.234129010244 C 4772.763353932113 4978.797733329758 4773.8753348509645 4979.049665436061 4776.302352133943 4981.115122672027 C 4777.960699292293 4982.526420878256 4779.47143851216 4985.132921090447 4780.003055685893 4987.5 C 4780.497148965797 4989.7 4780.586090505523 4991.774021332277 4780.200703551951 4992.108936293949 C 4779.815316598378 4992.443851255621 4776.125 4993.248425650845 4772 4993.896879394447 C 4767.875 4994.545333138049 4761.6875 4996.408811805772 4758.25 4998.0379431004985 C 4754.101318919305 5000.004123807523 4751.328555969092 5002.092685838039 4750.0029089565505 5004.25 C 4748.904508882653 5006.0375 4747.724519496063 5009.075 4747.380710319683 5011 C 4746.954348930778 5013.387212820455 4747.36368512033 5015.930726373701 4748.668177222402 5019 C 4749.815813754956 5021.700216073638 4751.964435256257 5024.434492716416 4754.040375859268 5025.836512268097 C 4756.97453926951 5027.818146262356 4758.499939594603 5028.121913786871 4764.08358457641 5027.836512268097 C 4769.437518039936 5027.562852186398 4771.632128044365 5026.892980211541 4775.83358457641 5024.25 C 4778.675113059385 5022.4625 4781.225 5021 4781.5 5021 C 4781.775 5021 4782 5022.35 4782 5024 L 4782 5027 L 4786 5027 L 4790 5027 L 4789.75 5005.75 L 4789.5 4984.5 L 4787 4980.166032771634 C 4785.625 4977.782350796032 4783.15 4974.97164376464 4781.5 4973.920017146319 C 4779.85 4972.868390527998 4776.025 4971.800544267539 4773 4971.547025456412 Z M 4860.75 4971.085952743687 C 4859.5125 4971.133226752715 4857.375 4971.513888842613 4856 4971.931868499017 C 4854.625 4972.349848155421 4852.15 4973.395995037093 4850.5 4974.256639347177 C 4848.85 4975.117283657262 4846.312008249414 4977.099121567364 4844.860018332032 4978.660723591847 C 4843.40802841465 4980.222325616332 4841.19938962257 4983.525 4839.95193212741 4986 C 4838.4815348667125 4988.917320417206 4837.524597882106 4992.96194601768 4837.231093065895 4997.5 C 4836.982089077221 5001.35 4837.253260699715 5006.3 4837.833696671436 5008.5 C 4838.414132643157 5010.7 4840.376501971425 5014.7334660102815 4842.19451740092 5017.463257800626 C 4844.569300823672 5021.029049479896 4847.048592472163 5023.219945807937 4851 5025.244472045708 C 4855.525690561745 5027.56323547918 4857.7400301941425 5028.05516843919 4863.5 5028.021445329379 C 4868.826759632761 5027.990258551306 4871.75493027543 5027.38521142945 4875.75 5025.490231084295 L 4881 5023 L 4879.5 5020 C 4878.675 5018.35 4877.8875 5016.987108823404 4877.75 5016.971352940897 C 4877.6125 5016.955597058391 4875.475 5017.84571415817 4873 5018.949390940406 C 4870.525 5020.0530677226425 4866.7 5020.956075999018 4864.5 5020.956075999018 C 4862.3 5020.956075999018 4858.7 5020.150580575106 4856.5 5019.166086168101 C 4854.3 5018.181591761097 4851.538568887144 5016.053974661318 4850.363486415876 5014.438048168592 C 4849.188403944608 5012.822121675867 4847.728413565089 5009.7 4847.119063350278 5007.5 C 4846.509713135468 5005.3 4846.008644248324 5003.1625 4846.005576934403 5002.75 C 4846.002509620481 5002.3375 4854.325 5002 4864.5 5002 L 4883 5002 L 4883.009741426304 4996.75 C 4883.015099210771 4993.8625 4882.340099210772 4989.1375 4881.509741426304 4986.25 C 4880.528176903307 4982.836691167144 4878.688077737755 4979.672469957693 4876.25 4977.205386704747 C 4873.749220056429 4974.674855285448 4870.91765459519 4973.009228543542 4867.75 4972.205386704747 C 4865.1375 4971.542424017136 4861.9875 4971.038678734659 4860.75 4971.085952743687 Z M 4921 4970.99380522374 C 4919.625 4970.973554044829 4916.59025700166 4971.979163296296 4914.256126670354 4973.228492449223 C 4911.92199633905 4974.4778216021505 4908.918018352498 4977.075 4907.580620033572 4979 L 4905.148986726434 4982.5 L 4904.574493363217 4977.75 L 4904 4973 L 4900 4973 L 4896 4973 L 4896 5000 L 4896 5027 L 4901 5027 L 4906 5027 L 4906.030625549034 5008.75 L 4906.061251098068 4990.5 L 4908.280625549034 4987.0922595716975 C 4909.501281497065 4985.218002336131 4911.7375 4982.855502336131 4913.25 4981.8422595716975 C 4914.905954410648 4980.73291489413 4917.79025641894 4980 4920.5 4980 L 4925 4980 L 4925.601754912312 4976.25 C 4926.023051499826 4973.624575311553 4925.7981364375155 4972.279677035869 4924.851754912312 4971.765312774517 C 4924.108289710541 4971.361234800502 4922.375 4971.0140564026515 4921 4970.99380522374 Z M 4962.5 4971.065854824548 C 4960.85 4971.077916777511 4957.7 4971.740594477823 4955.5 4972.538471936354 C 4953.3 4973.336349394885 4949.8125 4975.3415976240585 4947.75 4976.9945791122955 C 4945.6875 4978.647560600533 4943.7625 4979.6625 4943.472222222223 4979.25 C 4943.1819444444445 4978.8375 4942.956944444444 4977.2625 4942.972222222223 4975.75 L 4943 4973 L 4939 4973 L 4935 4973 L 4935 5000 L 4935 5027 L 4939.5 5027 L 4944 5027 L 4943.954135673102 5007.75 L 4943.908271346204 4988.5 L 4947.704135673102 4984.935991267523 C 4949.791861052896 4982.975786464661 4953.1875 4980.838286464661 4955.25 4980.185991267523 C 4957.897126935673 4979.348799419594 4960.029348193371 4979.29409948382 4962.5 4980 C 4964.833333333333 4980.666666666667 4966.5 4982 4967.5 4984 C 4968.683333333333 4986.366666666667 4969 4991.222222222223 4969 5007 L 4969 5027 L 4974 5027 L 4979 5027 L 4978.741144665695 5005.75 L 4978.482289331391 4984.5 L 4976.241144665695 4979.75 C 4974.506613950988 4976.073744280781 4973.039281432985 4974.552861686497 4969.75 4973.021962000491 C 4967.4125 4971.934041100761 4964.15 4971.053792871587 4962.5 4971.065854824548 Z M 4038.5 4973 L 4034 4973 L 4034 5000 L 4034 5027 L 4038.5 5027 L 4043 5027 L 4043 5000 L 4043 4973 L 4038.5 4973 Z M 5000.5 4973 L 4996 4973 L 4996 5000 L 4996 5027 L 5000.5 5027 L 5005 5027 L 5005 5000 L 5005 4973 L 5000.5 4973 Z M 5058.75 4973.008240972477 C 5056.1375 4973.0037084376145 5054 4973.225 5054 4973.5 C 5054 4973.775 5058.733564159483 4985.8125 5064.5190314655165 5000.25 C 5070.30449877155 5014.6875 5075.034850308544 5027.175 5075.030923769948 5028 C 5075.026997231351 5028.825 5073.8934330718685 5031.8625 5072.511892304431 5034.75 C 5070.786758864363 5038.355628531279 5068.9820557574585 5040.504599578584 5066.75 5041.611039742513 C 5064.780460776386 5042.5873492698 5062.416533189213 5042.981337200996 5060.75 5042.611039742513 C 5059.2375 5042.274967884131 5057.827918688711 5042.3375 5057.617597086025 5042.75 C 5057.407275483339 5043.1625 5056.893380597132 5045.075 5056.4756084500095 5047 L 5055.71602272797 5050.5 L 5062.682367449609 5050 C 5068.153901720499 5049.6072880047195 5070.383773172155 5048.941480884073 5073.0743560856245 5046.897103630616 C 5074.958460238531 5045.465510627455 5077.698135447209 5042.090510627455 5079.16252321602 5039.397103630616 C 5080.626910984833 5036.703696633777 5086.423116555686 5021.225 5092.042980040139 5005 C 5097.662843524592 4988.775 5102.427208077383 4974.9375 5102.630456824118 4974.25 C 5102.887529372408 4973.380438048018 5101.630423027137 4973 5098.5 4973 L 5094 4973 L 5089.05915425363 4988.25 C 5086.341689093127 4996.6375 5083.144650453621 5006.875 5081.954623943615 5011 L 5079.79093937997 5018.5 L 5071.6454696899855 4995.758240972477 L 5063.5 4973.016481944955 L 5058.75 4973.008240972477 Z M 4117.75 4979.016846756863 C 4120.0875 4979.007581040588 4123.357908223725 4979.7875 4125.0175738305 4980.75 C 4126.677239437275 4981.7125 4128.702239437274 4983.9625 4129.5175738305 4985.75 C 4130.332908223725 4987.5375 4131 4990.35 4131 4992 L 4131 4995 L 4117 4995 L 4103 4995 L 4103.014239794715 4993.25 C 4103.022071681808 4992.2875 4103.883330077367 4989.7 4104.928147340403 4987.5 C 4105.9729646034375 4985.3 4108.329056695816 4982.495081040588 4110.163907545688 4981.266846756863 C 4112.293347836736 4979.841416689457 4115.037209104395 4979.027600104778 4117.75 4979.016846756863 Z M 4174.5 4978.99778693197 C 4176.15 4978.989792928822 4179.525 4979.999520595113 4182 4981.241626190395 L 4186.5 4983.5 L 4186.75 4998.75 L 4187 5014 L 4184 5016.5 C 4182.35 5017.875 4179.3125 5019.440913861027 4177.25 5019.97980858006 C 4174.881793776165 5020.598578920718 4172.210325808913 5020.615566399031 4170 5020.025910281178 C 4168.075 5019.512371497759 4165.51277429616 5018.058957636731 4164.30616510258 5016.796101701117 C 4163.099555908999 5015.533245765503 4161.412055908999 5012.8125 4160.55616510258 5010.75 C 4159.68499595591 5008.650682713811 4158.9891846025785 5004.02877111514 4158.975429717661 5000.25 C 4158.961511882124 4996.426462745341 4159.599868412166 4991.982574872786 4160.447823851038 4990 C 4161.2711542796815 4988.075 4162.744710906734 4985.510003270012 4163.722394133377 4984.300007266695 C 4164.700077360019 4983.090011263376 4166.85 4981.405283597085 4168.5 4980.556168008269 C 4170.15 4979.707052419453 4172.85 4979.005780935119 4174.5 4978.99778693197 Z M 4350 4979.378543198591 C 4352.475 4979.653520953946 4355.625 4980.719683839446 4357 4981.747794055255 C 4358.375 4982.775904271065 4360.539282995376 4985.615741151463 4361.809517767502 4988.058542678364 C 4363.769445801846 4991.8277003962685 4364.071868360082 4993.71095317153 4363.807431908827 5000.5 C 4363.588815276632 5006.112685189275 4362.883999971154 5009.6936574053625 4361.4455639145035 5012.5 C 4360.047727916732 5015.22713318241 4357.979983093222 5017.229843440195 4354.947649773178 5018.79354219973 C 4351.448425433812 5020.598005027953 4349.647032269014 5020.939324607742 4346.5 5020.394163500581 C 4343.843350270491 5019.933951470937 4341.279267093839 5018.492018702095 4338.865109136532 5016.100621300851 C 4336.649218070273 5013.905621540685 4334.7513603586785 5010.743276255798 4334.003582257099 5008 C 4333.3289324483185 5005.525 4332.9760724161515 5000.8 4333.219448852283 4997.5 C 4333.498131481104 4993.7212747884405 4334.557504400059 4989.870862071411 4336.080975731716 4987.099451440046 C 4337.476982509138 4984.559916928295 4339.980167547289 4981.891086800886 4342 4980.7887432617445 C 4344.544297458765 4979.400167758088 4346.728760410159 4979.015101534086 4350 4979.378543198591 Z M 4561.25 4979.039141810636 C 4562.7625 4979.017613814785 4565.638210718463 4979.7875 4567.64046826325 4980.75 C 4569.966976653647 4981.868369777947 4572.197805405756 4984.124191999564 4573.821221146644 4987 C 4575.493378689381 4989.962151911107 4576.5087202038 4993.550464118524 4576.792279762827 4997.5 C 4577.029205460648 5000.8 4576.6710675516815 5005.525 4575.996417742901 5008 C 4575.2486396413215 5010.743276255798 4573.350781929727 5013.905621540685 4571.134890863468 5016.100621300851 C 4568.720732906161 5018.492018702095 4566.156649729509 5019.933951470937 4563.5 5020.394163500581 C 4560.352967730986 5020.939324607742 4558.551574566188 5020.598005027953 4555.052350226822 5018.79354219973 C 4552.011570465571 5017.225487820859 4549.9598112575795 5015.23472950104 4548.565961080221 5012.5 C 4547.283741325156 5009.984289023345 4546.382361859065 5005.9024942091455 4546.136839926823 5001.5 C 4545.922129947837 4997.65 4546.235612282886 4992.925 4546.833467338045 4991 C 4547.431322393204 4989.075 4548.9508693101625 4986.183399174599 4550.210238264621 4984.574220387997 C 4551.46960721908 4982.965041601396 4553.85 4981.0701554161815 4555.5 4980.363362198632 C 4557.15 4979.656568981083 4559.7375 4979.060669806485 4561.25 4979.039141810636 Z M 4862 4978.964227005099 C 4864.671266139803 4978.976282689477 4867.49297447816 4979.698852405166 4868.9434310803645 4980.742267971789 C 4870.287318174565 4981.7090205873055 4872.189935274344 4984.3 4873.1714690798735 4986.5 C 4874.153002885403 4988.7 4874.965958899239 4991.5125 4874.978037999509 4992.75 L 4875 4995 L 4860.5 4995 L 4846 4995 L 4846.569487551403 4992.25 C 4846.882705704675 4990.7375 4847.920834717742 4988.15 4848.876440913775 4986.5 C 4849.832047109809 4984.85 4852.163277711677 4982.474881564989 4854.056953362373 4981.22195903331 C 4856.379078662263 4979.685559117861 4858.965024018174 4978.9505298627655 4862 4978.964227005099 Z M 4778.25 4999.065811111957 L 4781 4999 L 4780.75 5006.711032696041 L 4780.5 5014.422065392083 L 4775.578419900097 5017.461032696041 C 4771.844637734444 5019.766560939246 4769.470629077932 5020.5 4765.741836232136 5020.5 C 4761.631751450506 5020.5 4760.4315930435505 5020.049638849285 4758.41341633204 5017.75 C 4757.086037349418 5016.2375 4756 5014.1 4756 5013 C 4756 5011.9 4756.675 5009.65 4757.5 5008 C 4758.325 5006.35 4760.35 5004.325 4762 5003.5 C 4763.65 5002.675 4767.3625 5001.35461500038 4770.25 5000.565811111957 C 4773.1375 4999.7770072235335 4776.7375 4999.102007223533 4778.25 4999.065811111957 Z " fill="#e5ff00" transform="scale(0.1)"></path>
</g>
</svg>
