<svg xmlns="http://www.w3.org/2000/svg" width="900" height="600">
<style></style>
<rect width="900" height="200" y="0" fill="#800000"/>
<rect width="900" height="200" y="200" fill="#000000"/>
<rect width="900" height="200" y="400" fill="#800000"/>
<path d="M0 0 L300 300 L0 600 Z" fill="#ffffff"/>
<path d="M 320.25 198.3453966372207 C 319.5625 198.15542848674932 318.7704158249101 198.5625 318.4898129442447 199.25 C 318.20921006357935 199.9375 302.33802554105904 248.2 283.22051400531075 306.5 L 248.46140212213197 412.5 L 136.230701061066 412.75 L 24 413 L 24.04864048831604 414.75 C 24.08054053441339 415.8977080638591 54.587198516683685 438.5266765217234 112.68780077832878 480.5 C 161.41258666926197 515.7 202.17788631204186 545.175 203.2773555400619 546 L 205.27639050009833 547.5 L 170.00716693317804 654.5 C 150.6090939713719 713.35 134.57190610884976 762.0625 134.36897168312888 762.75 C 134.166037257408 763.4375 134.5625 764.0175007162137 135.25 764.038890480475 C 135.9375 764.0602802447361 177.5625 734.360280244736 227.75 698.038890480475 C 277.9375 661.7175007162136 319.45 632 320 632 C 320.55 632 362.0625 661.7175007162136 412.25 698.0388904804748 C 462.4375 734.360280244736 503.95 764.045272339742 504.5 764.0055395804882 C 505.05 763.9658068212344 499.2868021080312 744.9358061050208 491.6928935734027 721.7166491000135 C 484.09898503877423 698.497492095006 468.22517745326223 650.025 456.41776560559833 614 C 444.61035375793443 577.975 435.0735516499032 548.1490872704072 435.2248720321956 547.7201939342383 C 435.376192414488 547.2913005980695 476 517.5674547855912 525.5 481.66720323984214 C 576.3479151338017 444.7893659897335 615.608755791295 415.655780251744 615.75 414.69700930560384 L 616 413 L 503.7689970697861 412.75 L 391.5379941395722 412.5 L 356.5189970697861 305.5953966372207 C 337.25854868140374 246.79786478769208 320.9375 198.5353647876921 320.25 198.3453966372207 Z " fill="#ffffff" transform="translate(370,179)scale(0.25)"></path>

</svg>