<svg xmlns="http://www.w3.org/2000/svg" width="900" height="600">
<style></style>
<rect width="900" height="160" x="0" y="0" fill="green"/>
<rect width="900" height="60" x="0" y="160" fill="yellow"/>
<rect width="900" height="160" x="0" y="220" fill="teal"/>
<rect width="900" height="60" x="0" y="380" fill="yellow"/>
<rect width="900" height="160" x="0" y="440" fill="#ce1126"/>
<path d="M 320.25 198.3453966372207 C 319.5625 198.15542848674932 318.7704158249101 198.5625 318.4898129442447 199.25 C 318.20921006357935 199.9375 302.33802554105904 248.2 283.22051400531075 306.5 L 248.46140212213197 412.5 L 136.230701061066 412.75 L 24 413 L 24.04864048831604 414.75 C 24.08054053441339 415.8977080638591 54.587198516683685 438.5266765217234 112.68780077832878 480.5 C 161.41258666926197 515.7 202.17788631204186 545.175 203.2773555400619 546 L 205.27639050009833 547.5 L 170.00716693317804 654.5 C 150.6090939713719 713.35 134.57190610884976 762.0625 134.36897168312888 762.75 C 134.166037257408 763.4375 134.5625 764.0175007162137 135.25 764.038890480475 C 135.9375 764.0602802447361 177.5625 734.360280244736 227.75 698.038890480475 C 277.9375 661.7175007162136 319.45 632 320 632 C 320.55 632 362.0625 661.7175007162136 412.25 698.0388904804748 C 462.4375 734.360280244736 503.95 764.045272339742 504.5 764.0055395804882 C 505.05 763.9658068212344 499.2868021080312 744.9358061050208 491.6928935734027 721.7166491000135 C 484.09898503877423 698.497492095006 468.22517745326223 650.025 456.41776560559833 614 C 444.61035375793443 577.975 435.0735516499032 548.1490872704072 435.2248720321956 547.7201939342383 C 435.376192414488 547.2913005980695 476 517.5674547855912 525.5 481.66720323984214 C 576.3479151338017 444.7893659897335 615.608755791295 415.655780251744 615.75 414.69700930560384 L 616 413 L 503.7689970697861 412.75 L 391.5379941395722 412.5 L 356.5189970697861 305.5953966372207 C 337.25854868140374 246.79786478769208 320.9375 198.5353647876921 320.25 198.3453966372207 Z " fill="#ffffff" transform="translate(370,179)scale(0.25)"></path>
<path d="M 82.75 173.0252782070005 C 80.6875 173.01137519315023 78.325 173.675 77.5 174.5 C 76.50052771496975 175.49947228503024 76.0834212858283 177.58236724610333 76.25 180.74209678738453 C 76.47104162534143 184.93489991302403 76.84750049590278 185.64210333057687 79.5 186.847441319762 C 81.15 187.59722757950811 83.5125 187.93828402518506 84.75 187.60534453237744 C 85.9875 187.27240503956986 87.675 186.325 88.5 185.5 C 89.325 184.675 90.01466763099575 182.3125 90.03259473554611 180.25 C 90.05276508422882 177.92941643664582 89.38570408046078 175.84257448545208 88.28259473554611 174.7752782070005 C 87.25331649025517 173.77941605992103 84.91526692403728 173.0398739578051 82.75 173.0252782070005 Z M 59.25 177.07894736842104 C 58.8375 177.12236842105264 57.825 177.40608793651896 57 177.70943518056845 C 56.175 178.0127824246179 54.69783236900425 178.98975610882843 53.71740526445389 179.88048781214738 C 52.655299316754075 180.8454258840438 51.93481052890778 182.9146293081526 51.934810528907775 185 C 51.934810528907775 187.09341580019364 52.65120184024411 189.14220633280226 53.71740526445389 190.09800043617537 C 54.697832369004246 190.9769006760718 56.2875 191.9894006760718 57.25 192.34800043617537 C 58.2125 192.7066001962789 60.575 192.325 62.5 191.5 C 64.53304648906979 190.62869436182723 66.25500179871506 189.05695845725916 66.60840802987462 187.75 L 67.21681605974923 185.5 L 66.60840802987462 182.75 C 66.23160427914802 181.04684970674748 64.85798213809366 179.42899106904684 63 178.5 C 61.35 177.675 59.6625 177.03552631578947 59.25 177.07894736842104 Z M 108 177.619763241994 C 106.625 177.32493098449535 104.4875 177.51487105879724 103.25 178.04185229599824 C 102.0125 178.5688335331992 100.5291120144718 180.2375 99.9535822543818 181.75 C 99.3780524942918 183.2625 99.14007664237819 185.625 99.42474702790715 187 C 99.7094174134361 188.375 100.51780539896428 190.07422487374424 101.22116477352535 190.7760552749872 C 101.9245241480864 191.47788567623016 104.1418037487875 192.15288567623017 106.14845277508334 192.2760552749872 C 108.64838667898731 192.4295030637275 110.46872521358858 191.8704077087016 111.93104751062944 190.5 C 113.32244784639643 189.19605643715917 114.06518947109222 187.28190123497146 114.06518947109222 185 C 114.06518947109222 182.9342923551717 113.3346860420742 180.81478155790728 112.28259473554611 179.8279109459958 C 111.30216763099575 178.90826196629348 109.375 177.9145954994927 108 177.619763241994 Z M 39.25 190.96740526445387 C 37.36879096612575 190.986272190905 35.157667097768766 191.84233290223122 34 193 C 32.666666666666664 194.33333333333334 32 196.33333333333334 32 199 C 32 202.03474606571552 32.54295533803501 203.3638360680191 34.25 204.50773202821006 C 35.4875 205.3369846437256 37.625 206.03108646470614 39 206.05018051927794 C 40.375 206.06927457384975 42.625 205.2055540661626 44 204.1308016133065 C 45.81421610949775 202.71274109425647 46.5 201.22117185013116 46.5 198.6933406843507 C 46.5 196.58916922344358 45.70812554673744 194.36362671759326 44.5 193.072392826566 C 43.231819624177675 191.7169728657683 41.31079311071128 190.94673726246654 39.25 190.96740526445387 Z M 127 191 C 125.13333333333333 191 123.05555555555556 191.94444444444446 121.5 193.5 C 120.125 194.875 119 197.125 119 198.5 C 119 199.875 120.125 202.125 121.5 203.5 C 123.05555555555556 205.05555555555554 125.13333333333333 206 127 206 C 128.66666666666666 206 130.88888888888889 205.11111111111111 132 204 C 133.23809523809524 202.76190476190476 134 200.66666666666666 134 198.5 C 134 196.33333333333334 133.23809523809524 194.23809523809524 132 193 C 130.88888888888889 191.88888888888889 128.66666666666666 191 127 191 Z M 27.5 211.76679483835392 C 26.4 211.50842336994083 24.4875 211.45519711241494 23.25 211.64851426607416 C 22.0125 211.84183141973338 20.29293832527471 213.0125 19.4287518339438 214.25 C 18.355349915968414 215.78709284606938 18.038502291999247 217.68817858988436 18.4287518339438 220.25 C 18.78801076520893 222.60838129957637 19.742196640225938 224.37109832011296 21 225 C 22.1 225.55 24.575 226 26.5 226 C 29.01622754719702 226 30.42379006730338 225.36757485176952 31.507732028210064 223.75 C 32.3369846437256 222.5125 33.02665227472135 220.15 33.04032676375618 218.5 C 33.054001252791004 216.85 32.26302184009647 214.7657262575259 31.282594735546112 213.86828057227973 C 30.30216763099575 212.9708348870336 28.6 212.02516630676698 27.5 211.76679483835392 Z M 142.91748391680426 211.96137712802368 C 141.58786776256193 211.6651345484367 139.6 211.59909147957697 138.5 211.81461475277985 C 137.4 212.03013802598272 135.69783236900426 212.94751831837206 134.71740526445387 213.85323762475616 C 133.6604898286381 214.82961690985636 132.93481052890778 216.9248205149546 132.93481052890778 219 C 132.93481052890778 221.04602370211052 133.67533924154395 223.21648703070704 134.71740526445387 224.2247217929995 C 135.69783236900426 225.1733187791492 137.9625 225.9608187791492 139.75 225.9747217929995 C 141.5375 225.98862480684977 143.9 225.55 145 225 C 146.25780335977407 224.37109832011296 147.21198923479108 222.60838129957637 147.5712481660562 220.25 C 147.94162392028264 217.81864151015503 147.64887984956968 215.79672452791732 146.73873208286048 214.5 C 145.96666174577192 213.4 144.24710007104662 212.25761970761064 142.91748391680426 211.96137712802368 Z M 21 235 C 19.036465129766565 235 17.08431115977661 235.95009303561935 15.34958133971292 237.75 C 13.219899971088456 239.95969760418262 12.827544541032717 241.08942079543715 13.352593280792712 243.5 C 13.711980111544493 245.15 15.017168508673677 247.30660182098055 16.25301194107979 248.2924484910679 C 17.488855373485908 249.27829516115523 19.7375 250.06579516115522 21.25 250.0424484910679 C 22.7625 250.01910182098055 24.9 249.1 26 248 C 27.238095238095237 246.76190476190476 28 244.66666666666666 28 242.5 C 28 240.33333333333334 27.238095238095237 238.23809523809524 26 237 C 24.88888888888889 235.88888888888889 22.666666666666664 235 21 235 Z M 144.75 234.9575515089321 C 143.2375 234.98089817901945 141.1 235.9 140 237 C 138.76190476190476 238.23809523809524 138 240.33333333333334 138 242.5 C 138 244.66666666666666 138.76190476190476 246.76190476190476 140 248 C 141.15766709776878 249.15766709776878 143.36879096612574 250.013727809095 145.25 250.03259473554613 C 147.31079311071127 250.05326273753346 149.23181962417766 249.2830271342317 150.5 247.927607173434 C 151.70812554673745 246.63637328240674 152.5 244.41083077655642 152.5 242.3066593156493 C 152.5 239.77882814986884 151.81421610949775 238.28725890574353 150 236.8691983866935 C 148.625 235.7944459338374 146.2625 234.93420483884478 144.75 234.9575515089321 Z M 25.75 258.983016763661 C 23.9625 258.9736759836745 21.702933125161806 259.5361759836745 20.728740278137348 260.233016763661 C 19.75454743111289 260.9298575436475 18.670111736449446 263.075 18.318883178885255 265 C 17.785642513302154 267.9225649769662 18.119112843031022 268.9536989466694 20.340142900747907 271.25 C 21.80306430533656 272.7625 24.0125 274.01556343082706 25.25 274.03458540183794 C 26.4875 274.0536073728488 28.7375 273.1536073728488 30.25 272.03458540183794 C 32.33865039964992 270.4892989972304 33 269.1582823268272 33 266.5 C 33 264.3333333333333 32.23809523809524 262.23809523809524 31 261 C 29.83182710711961 259.83182710711964 27.648280950930634 258.9929364418233 25.75 258.983016763661 Z M 140 259 C 136.96525393428448 259 135.6361639319809 259.54295533803503 134.49226797178994 261.25 C 133.6630153562744 262.4875 132.98801535627442 264.9625 132.99226797178994 266.75 C 132.99652058730547 268.5375 133.675 270.675 134.5 271.5 C 135.325 272.325 137.2375 273.27578101005486 138.75 273.6128466890108 C 140.2625 273.94991236796676 142.5125 273.72491236796674 143.75 273.1128466890108 C 144.9875 272.5007810100549 146.50078101005485 270.9875 147.1128466890108 269.75 C 147.72491236796677 268.5125 147.94991236796676 266.2625 147.6128466890108 264.75 C 147.27578101005486 263.2375 146.325 261.325 145.5 260.5 C 144.66666666666666 259.6666666666667 142.22222222222223 259 140 259 Z M 39 278.93759349227366 C 37.625 278.94996325319886 35.4875 279.8690650741794 34.25 280.98004198334155 C 32.628326336109744 282.43591430235443 32 284.1170245975284 32 287 C 32 290.0347460657155 32.54295533803501 291.3638360680191 34.25 292.50773202821006 C 35.4875 293.3369846437256 37.85 294.02665227472136 39.5 294.0403267637562 C 41.29876206760496 294.0552341287075 43.30082528826336 293.2092744912378 44.5 291.927607173434 C 45.70812554673745 290.63637328240674 46.5 288.41083077655645 46.5 286.3066593156493 C 46.5 283.77882814986884 45.81421610949775 282.28725890574356 44 280.8691983866935 C 42.625 279.7944459338374 40.375 278.92522373134847 39 278.93759349227366 Z M 127.25 278.9575515089321 C 125.7375 278.9342048388448 123.4888553734859 279.7217048388448 122.25301194107979 280.7075515089321 C 121.01716850867368 281.6933981790194 119.74317779746957 283.85 119.42192147173735 285.5 C 119.00262774615047 287.6535284811637 119.42501366478848 289.27593222559995 120.91890953065756 291.25 C 122.43578106095806 293.25442833686344 123.88113014734323 294.002096284048 126.25 294.00773202821006 C 128.0375 294.0119846437256 130.5125 293.3369846437256 131.75 292.50773202821006 C 133.457044661965 291.3638360680191 134 290.0347460657155 134 287 C 134 284.3333333333333 133.33333333333334 282.3333333333333 132 281 C 130.9 279.9 128.7625 278.98089817901945 127.25 278.9575515089321 Z M 59.75 292.9674052644539 C 56.95099720512744 292.94593873365585 54.911160823231846 293.5434081710613 53.77527820700051 294.7174052644539 C 52.82668122085079 295.69783236900423 52.02451358985503 298.075 51.9926834714544 300 C 51.9578176317601 302.1085922636771 52.64347227341272 304.1856546416526 53.71740526445389 305.2247217929995 C 54.697832369004246 306.1733187791492 56.9625 306.96081877914924 58.75 306.9747217929995 C 60.5375 306.98862480684977 62.9 306.55 64 306 C 65.25780335977406 305.371098320113 66.21198923479108 303.60838129957637 66.5712481660562 301.25 C 66.96149770800075 298.6881785898844 66.64465008403158 296.78709284606936 65.5712481660562 295.25 C 64.3687446341941 293.52803589201267 63.00259887064277 292.9923505821071 59.75 292.9674052644539 Z M 106.5 292.98075285593063 C 104.3 292.94236089899186 101.95904664284356 293.4934857058417 101.29788142854125 294.20547464893014 C 100.63671621423893 294.9174635920185 99.77683776893946 296.85 99.38704043898687 298.5 C 98.89892254310753 300.5661879041061 99.19528915602534 302.3559944212361 100.33915901044563 304.25 C 101.72619964117388 306.54664474714474 102.70063993623087 307.0053734525728 106.25 307.0325947355461 C 109.04900279487256 307.05406126634415 111.08883917676816 306.4565918289387 112.2247217929995 305.2825947355461 C 113.17331877914921 304.30216763099577 113.97548641014497 301.925 114.0073165285456 300 C 114.0421823682399 297.8914077363229 113.35652772658729 295.8143453583474 112.28259473554611 294.7752782070005 C 111.23500417259923 293.7616982619764 108.85070942835684 293.0217748264528 106.5 292.98075285593063 Z M 82.75 297.98333333333335 C 80.4125 297.97416666666663 77.93 298.53666666666663 77.23333333333333 299.23333333333335 C 76.53666666666666 299.93 75.95949903567092 302.3 75.95073859778722 304.5 C 75.94061469080096 307.04240663143565 76.58438509525021 309.1284857620236 77.71740526445389 310.2247217929995 C 78.69783236900425 311.1733187791492 81.075 311.975486410145 83 312.00731652854563 C 85.10859226367708 312.0421823682399 87.18565464165263 311.3565277265872 88.2247217929995 310.2825947355461 C 89.220583940079 309.25331649025514 89.96012604219491 306.9152669240373 89.9747217929995 304.75 C 89.98862480684977 302.6875 89.325 300.325 88.5 299.5 C 87.64435695538059 298.6443569553806 85.17432195975502 297.99284047827354 82.75 297.98333333333335 Z M 58 343.0689632348218 C 54.425 343.1007583861308 50.375 343.5775732680129 49 344.1285518612265 C 47.625 344.67953045444017 45.0375 346.22600661925156 43.25 347.5651655608075 C 41.4625 348.90432450236335 38.93937586212855 352.1375 37.64305747139678 354.75 C 36.34673908066501 357.3625 34.99673908066501 360.7375 34.64305747139678 362.25 L 34 365 L 40.75 365.0396836001446 L 47.5 365.07936720028925 L 49 361.90366819279495 C 49.825 360.15703373867314 51.7375 358.11417611860804 53.25 357.36398459265035 C 54.7625 356.61379306669266 57.9125 356.0016821271969 60.25 356.00373806043757 C 62.73952085612461 356.0059277026542 65.84624875708118 356.8343884762426 67.75 358.00373806043757 C 69.5375 359.1016821271969 71.9 361.8 73 364 C 74.1 366.2 75 369.575 75 371.5 C 75 373.72222222222223 75.54761904761905 375.1825396825397 76.5 375.5 C 77.325 375.775 80.025 376 82.5 376 C 86 376 87.22222222222223 375.55555555555554 88 374 C 88.55 372.9 89 370.875 89 369.5 C 89 368.125 89.63224369000598 365.7625 90.40498597779109 364.25 C 91.17772826557618 362.7375 93.01794293443147 360.375 94.49435190858063 359 C 96.54900340735864 357.0864747774594 98.50665950398675 356.4136015942246 102.83936593078955 356.131704511873 C 107.75752008376901 355.8117166867798 108.92628788546426 356.10683906902426 111.75 358.381704511873 C 113.5375 359.82176703034287 115.225 361.9 115.5 363 C 115.93589743589743 364.7435897435897 116.83333333333333 365 122.5 365 C 128.01444941625195 365 129.00372542401564 364.7346594582217 129.02457028233863 363.25 C 129.03808393762486 362.2875 128.36308393762485 359.8125 127.52457028233863 357.75 C 126.68605662705238 355.6875 124.5375 352.3517151349899 122.75 350.33714474442195 C 120.9625 348.32257435385395 117.7 345.8574572540749 115.5 344.8591067449129 C 112.7822739883711 343.62581440515254 109.09573627180418 343.0414485050818 104 343.03620179520516 C 98.21349659137115 343.03024385253195 95.48758601933037 343.53927525487916 92.06864898753832 345.26423979471423 C 89.63140593068441 346.4939079076214 86.38821738562183 349.075 84.86156333184373 351 L 82.0858286886108 354.5 L 77.2929143443054 349.89438283067176 C 74.48534883606051 347.196531173016 70.8430967520466 344.81704286426435 68.5 344.14995976507447 C 66.3 343.5236165221265 61.575 343.03716808351277 58 343.0689632348218 Z " fill="#ce1126" transform="translate(430,239)scale(0.25)"></path>
</svg>