<svg xmlns="http://www.w3.org/2000/svg" width="287" height="287">
<style></style>
<path d="M 143 1.9938997201410855 C 142.725 1.9938997201410855 133.275 11.221644846077599 122 22.500000000000004 L 101.5 43.00610027985892 L 72.25 43.00305013992946 L 43 43 L 42.99709261220476 72.25 L 42.99418522440952 101.5 L 22.24709261220476 122.25 L 1.5 143 L 22.247092612204753 163.75 L 42.994185224409506 184.5 L 42.99709261220475 213.75 L 43 243 L 72.25 243.00290738779523 L 101.5 243.00581477559047 L 122.24999999999999 263.75290738779523 L 142.99999999999997 284.5 L 163.75 263.75290738779523 L 184.5 243.00581477559047 L 213.75 243.00290738779523 L 243 243 L 243.00290738779523 213.75 L 243.0058147755905 184.5 L 263.75290738779523 163.75 L 284.5 143 L 263.75290738779523 122.25 L 243.0058147755905 101.5 L 243.00290738779523 72.25 L 243 43 L 213.75 43.00305013992946 L 184.5 43.00610027985892 L 164 22.500000000000004 C 152.725 11.221644846077599 143.275 1.9938997201410855 143 1.9938997201410855 Z M 143 30.979058937365185 C 143.275 30.979058937365185 146.2 33.68848241555085 149.5 37 L 155.5 43.02094106263482 L 143 43.02094106263482 L 130.5 43.02094106263482 L 136.5 37 C 139.8 33.68848241555085 142.725 30.979058937365185 143 30.979058937365185 Z M 72 63 C 76.95 63 81.00313221115391 63.1125 81.00696046923093 63.25 C 81.01078872730794 63.3875 76.95765651615402 67.55 72 72.5 L 62.98607906153815 81.5 L 62.993039530769074 72.25 L 63 63 L 72 63 Z M 143 62.999946282722036 L 175.5 63.00510259346109 L 199.2526050140085 86.75255129673054 L 223.00521002801702 110.5 L 223.00005371727795 143 L 222.99489740653888 175.5 L 199.24744870326944 199.2526050140085 L 175.5 223.00521002801702 L 143 223.00521002801702 L 110.5 223.00521002801702 L 86.75255129673054 199.2526050140085 L 63.00510259346109 175.5 L 63.00510259346109 143 L 63.00510259346109 110.5 L 86.75255129673054 86.74739498599149 L 110.5 62.994789971982975 L 143 62.999946282722036 Z M 213.75 62.993039530769074 L 223 63 L 223 72 C 223 76.95 222.8875 81.00313221115391 222.75 81.00696046923093 C 222.6125 81.01078872730794 218.45 76.95765651615402 213.5 72 L 204.5 62.98607906153815 L 213.75 62.993039530769074 Z M 42.75 130.98952946868258 C 42.8875 130.99528826090716 43.0015 136.5125 43.00333333333333 143.25 L 43.00666666666667 155.5 L 36.75333333333333 149.26070703732398 L 30.5 143.021414074648 L 36.5 137.0002365060066 C 39.8 133.68858884325383 42.6125 130.98377067645802 42.75 130.98952946868258 Z M 249.24666666666667 136.75 L 255.5 143 L 249.24666666666667 149.25 L 242.99333333333334 155.5 L 242.99333333333334 143 L 242.99333333333334 130.5 L 249.24666666666667 136.75 Z M 63.25 204.99303953076907 C 63.3875 204.98921127269205 67.55 209.04234348384597 72.5 214 L 81.5 223.01392093846187 L 72.25 223.00696046923093 L 63 223 L 63 214 C 63 209.05 63.1125 204.9968677888461 63.25 204.99303953076907 Z M 222.75 204.99303953076907 C 222.8875 204.9968677888461 223 209.05 223 214 L 223 223 L 213.75 223.00696046923093 L 204.5 223.01392093846187 L 213.5 214 C 218.45 209.04234348384597 222.6125 204.98921127269205 222.75 204.99303953076907 Z M 143 242.99333333333334 L 155.5 242.99333333333334 L 149.25 249.24666666666667 L 143 255.5 L 136.75 249.24666666666667 L 130.5 242.99333333333334 L 143 242.99333333333334 Z " fill="none" stroke-width="2" stroke="#ffffffbb"></path>

<path d="M 1780 2490 L 1706 2490 L 1706.0094678921 2692.25 C 1706.0147729339703 2805.5745612544765 1706.4559243441 2907.470583154477 1707.0128126487566 2924 C 1707.5594449242626 2940.225 1708.6917713608207 2960.25 1709.5290936188858 2968.5 C 1710.3664158769511 2976.75 1711.9485237716463 2989.575 1713.0448889404308 2997 C 1714.1412541092154 3004.425 1715.9662010717088 3015.225 1717.1003266348607 3021 C 1718.2344521980126 3026.775 1720.5043889061706 3036.9 1722.1446304307674 3043.5 C 1723.784871955364 3050.1 1726.50750292929 3060 1728.194921483936 3065.5 C 1729.8823400385822 3071 1733.4913987487141 3081.125 1736.2150519508957 3088 C 1738.9387051530773 3094.875 1744.390889325426 3106.8 1748.3310167783375 3114.5 C 1752.2711442312486 3122.2 1758.8138990233615 3133.45 1762.8704718719214 3139.5 C 1766.9270447204813 3145.55 1773.29382351974 3154.1 1777.0188692036072 3158.5 C 1780.7439148874744 3162.9 1787.341281383621 3170.1 1791.6796836394885 3174.5 C 1796.018085895356 3178.9 1803.377457999326 3185.5722093876643 1808.033843870533 3189.3271319725873 C 1812.6902297417398 3193.0820545575098 1820.775 3198.9747585675314 1826 3202.422029772635 C 1831.225 3205.8693009777385 1839.325 3210.7618197222696 1844 3213.294293649371 C 1848.675 3215.8267675764723 1855.875 3219.316849271102 1860 3221.0500307485477 C 1864.125 3222.7832122259933 1872.675 3225.970012144829 1879 3228.1318083459605 C 1885.325 3230.293604547092 1894.775 3233.1373177645546 1900 3234.4511710514334 C 1905.225 3235.7650243383123 1914.225 3237.769228118243 1920 3238.904957229058 C 1925.775 3240.040686339872 1936.35 3241.6764629078234 1943.5 3242.5400162689502 C 1950.65 3243.4035696300766 1964.825 3244.4816009628353 1975 3244.935641452859 C 1985.175 3245.3896819428824 2002.05 3245.3878923330576 2012.5 3244.9316645421377 C 2022.95 3244.4754367512182 2035.775 3243.6397730728427 2041 3243.074634145748 C 2046.225 3242.5094952186537 2055.675 3241.1127243446913 2062 3239.9706988702765 C 2068.325 3238.8286733958616 2078.675 3236.5826582975487 2085 3234.979554207359 C 2091.325 3233.376450117169 2101.675 3230.2955208155413 2108 3228.133044648186 C 2114.325 3225.970568480831 2122.875 3222.783212225994 2127 3221.050030748548 C 2131.125 3219.316849271102 2138.325 3215.8163814354884 2143 3213.271213336073 C 2147.675 3210.7260452366577 2154.65 3206.6314235161 2158.5 3204.172053957055 C 2162.35 3201.712684398011 2168.875 3197.1201195083977 2173 3193.9663542023586 C 2177.125 3190.8125888963195 2185.185079652994 3183.7924824846823 2190.9112881177643 3178.3661177320528 C 2196.6374965825344 3172.9397529794237 2204.7561172434516 3164.225 2208.9526673642467 3159 C 2213.149217485042 3153.775 2219.0705230623134 3145.9 2222.111124202628 3141.5 C 2225.1517253429433 3137.1 2229.8945265904613 3129.45 2232.650682530447 3124.5 C 2235.4068384704324 3119.55 2239.7353323926563 3111 2242.2695579131673 3105.5 C 2244.8037834336783 3100 2248.6454065292246 3091 2250.8064981254925 3085.5 C 2252.9675897217603 3080 2256.1166608259223 3071 2257.8044339125186 3065.5 C 2259.492206999115 3060 2262.2151280446365 3050.1 2263.855369569233 3043.5 C 2265.4956110938297 3036.9 2267.7655478019874 3026.775 2268.8996733651393 3021 C 2270.033798928291 3015.225 2271.8587458907846 3004.425 2272.9551110595694 2997 C 2274.0514762283537 2989.575 2275.633584123049 2976.75 2276.470906381114 2968.5 C 2277.308228639179 2960.25 2278.4405550757374 2940.225 2278.9871873512434 2924 C 2279.5440756559005 2907.470583154471 2279.98522706603 2805.5745612545147 2279.9905321079 2692.25 L 2280 2490 L 2208.5 2490 L 2137 2490 L 2136.997784805355 2713.75 C 2136.996309726711 2862.743158367789 2136.6393282539025 2942.177523051848 2135.9293260155378 2951.5 C 2135.342892038193 2959.2 2134.0279622130515 2971.575 2133.0072597374456 2979 C 2131.986557261839 2986.425 2129.941405989334 2997.9 2128.4624791318774 3004.5 C 2126.983552274421 3011.1 2124.206828674573 3021 2122.291982243326 3026.5 C 2120.3771358120794 3032 2116.6295584595755 3041 2113.964032571096 3046.5 C 2111.2985066826163 3052 2106.7731750176786 3060.1 2103.9077399823454 3064.5 C 2101.042304947012 3068.9 2096.403340027439 3075.108328142324 2093.5989290499606 3078.29628476072 C 2090.7945180724823 3081.484241379116 2085.35 3086.59911790774 2081.5 3089.6626770465514 C 2077.65 3092.7262361853627 2071.35 3097.0709648435873 2067.5 3099.3176296203837 C 2063.65 3101.5642943971807 2057.35 3104.692748392823 2053.5 3106.2697496107003 C 2049.65 3107.846750828578 2042.675 3110.253757778639 2038 3111.618653944169 C 2033.325 3112.9835501096995 2025 3114.744475562736 2019.5 3115.531821617584 C 2014 3116.3191676724314 2002.75 3116.9633598991245 1994.5 3116.9633598991236 C 1986.25 3116.9633598991227 1975 3116.3131704342204 1969.5 3115.518494421563 C 1964 3114.7238184089056 1955.675 3112.950391968816 1951 3111.5775467769195 C 1946.325 3110.204701585023 1940.025 3108.037415529741 1937 3106.761355542959 C 1933.975 3105.485295556177 1928.8 3103.048319655772 1925.5 3101.3458535420596 C 1922.2 3099.643387428347 1915.9 3095.558946769957 1911.5 3092.269318745638 C 1907.1 3088.9796907213185 1900.9814610092199 3083.41083708451 1897.9032466871554 3079.8940884416197 C 1894.825032365091 3076.377339798729 1889.9005484573242 3069.9 1886.9599491143404 3065.5 C 1884.0193497713567 3061.1 1879.2740723104982 3052.55 1876.4148880902103 3046.5 C 1873.5557038699221 3040.45 1869.629825080586 3030.55 1867.6907130027962 3024.5 C 1865.7516009250066 3018.45 1863.0311566364728 3008.1 1861.645281250499 3001.5 C 1860.2594058645252 2994.9 1858.4380097168562 2984.325 1857.5977342556791 2978 C 1856.757458794502 2971.675 1855.6042195346745 2959.8625 1855.0349803449512 2951.75 C 1854.368757425195 2942.25533846914 1854 2857.368261162519 1854 2713.5 L 1854 2490 L 1780 2490 Z M 2499.5 2490.331233879585 L 2456.5 2489.6650151841 L 2457.2492131374656 2559.58250759205 C 2457.6612803630715 2598.0371284164225 2457.9987803630715 2765.0625 2457.9992131374656 2930.75 L 2458 3232 L 2532 3232 L 2606 3232 L 2606 3081.5 L 2606 2931 L 2737.5000511192866 2931.25 L 2869.0001022385736 2931.5 L 2869.0000511192866 2869.75 L 2869 2808 L 2762.25 2807.99783342227 C 2703.5375 2807.9966418045187 2644.361429870747 2807.6591418045186 2630.7476219349937 2807.24783342227 L 2605.9952438699875 2806.5 L 2605.9976219349937 2710.25 L 2606 2614 L 2760.00004070262 2614.25 L 2914.00008140524 2614.5 L 2914.00004070262 2552.75 L 2914 2491 L 2728.25 2490.9987262875347 C 2626.0875 2490.9980257456787 2523.15 2490.697654162101 2499.5 2490.331233879585 Z M 3084.5 2490.331233879585 L 3041.5 2489.6650151841 L 3042.2492131374656 2559.58250759205 C 3042.6612803630715 2598.0371284164225 3042.9987803630715 2765.0625 3042.9992131374656 2930.75 L 3043 3232 L 3117 3232 L 3191 3232 L 3191 3081.5 L 3191 2931 L 3322.5000511192866 2931.25 L 3454.0001022385736 2931.5 L 3454.0000511192866 2869.75 L 3454 2808 L 3347.25 2807.99783342227 C 3288.5375 2807.9966418045187 3229.361429870747 2807.6591418045186 3215.7476219349937 2807.24783342227 L 3190.9952438699875 2806.5 L 3190.9976219349937 2710.25 L 3191 2614 L 3345.00004070262 2614.25 L 3499.00008140524 2614.5 L 3499.00004070262 2552.75 L 3499 2491 L 3313.25 2490.9987262875347 C 3211.0875 2490.9980257456787 3108.15 2490.697654162101 3084.5 2490.331233879585 Z M 3669.5 2490.331233879585 L 3626.5 2489.6650151841 L 3627.2492131374656 2559.58250759205 C 3627.6612803630715 2598.0371284164225 3627.9987803630715 2765.0625 3627.9992131374656 2930.75 L 3628 3232 L 3702 3232 L 3776 3232 L 3776 3081.5 L 3776 2931 L 3907.5000511192866 2931.25 L 4039.0001022385736 2931.5 L 4039.0000511192866 2869.75 L 4039 2808 L 3932.25 2807.99783342227 C 3873.5375 2807.9966418045187 3814.361429870747 2807.6591418045186 3800.7476219349937 2807.24783342227 L 3775.9952438699875 2806.5 L 3775.9976219349937 2710.25 L 3776 2614 L 3930.00004070262 2614.25 L 4084.00008140524 2614.5 L 4084.00004070262 2552.75 L 4084 2491 L 3898.25 2490.9987262875347 C 3796.0875 2490.9980257456787 3693.15 2490.697654162101 3669.5 2490.331233879585 Z " fill="#ffffffbb" transform="scale(0.05)"></path>
</svg>
